# xmcd
# 
# Track frame offsets:
#     150
#     18687
#     34840
#     53182
#     74405
#     84447
#     102375
#     110095
#     127602
#     142320
#     161877
#     177417
# 
# Disc length: 2672
# 
# Revision: 5
# Processed by: cddbd v1.5.2PL0 Copyright (c) Steve Scherf et al.
# Submitted via: fre:ac v1.0.27
# 
DISCID=af0a6e0c
DTITLE=MORCHEEBA - Fragments of Freedom
DYEAR=2000
DGENRE=Trip-Hop
TTITLE0=World Looking In
TTITLE1=Rome Wasn't Built in a Day
TTITLE2=Love Is Rare
TTITLE3=Let It Go
TTITLE4=A Well Deserved Break
TTITLE5=Love Sweet Love (feat. Mr. Complex)
TTITLE6=In the Hands of the Gods (feat. Biz Markie)
TTITLE7=Shallow End
TTITLE8=Be Yourself
TTITLE9=Coming Down Gently
TTITLE10=Good Girl Down (feat. Bahamadia)
TTITLE11=Fragments of Freedom
EXTD=YEAR: 2000
EXTT0=
EXTT1=
EXTT2=
EXTT3=
EXTT4=
EXTT5=
EXTT6=
EXTT7=
EXTT8=
EXTT9=
EXTT10=
EXTT11=
PLAYORDER=
